<svg xmlns="http://www.w3.org/2000/svg" width="18.949" height="14.212" viewBox="0 0 18.949 14.212">
  <g id="email" transform="translate(0 -64)">
    <g id="Group_60" data-name="Group 60" transform="translate(0 64)">
      <g id="Group_59" data-name="Group 59">
        <path id="Path_1609" data-name="Path 1609" d="M7.053,65.153c2.6,2.2,7.164,6.077,8.505,7.285a.792.792,0,0,0,1.146,0c1.342-1.209,5.906-5.085,8.506-7.287a.394.394,0,0,0,.056-.545A1.568,1.568,0,0,0,24.027,64H8.237A1.568,1.568,0,0,0,7,64.608.394.394,0,0,0,7.053,65.153Z" transform="translate(-6.658 -64)" fill="#a57bff"/>
        <path id="Path_1610" data-name="Path 1610" d="M18.72,126.448a.393.393,0,0,0-.421.057c-2.884,2.445-6.565,5.579-7.723,6.622a1.6,1.6,0,0,1-2.2,0C7.138,132.015,3,128.5.65,126.505a.395.395,0,0,0-.65.3v9.928a1.581,1.581,0,0,0,1.579,1.579H17.37a1.581,1.581,0,0,0,1.579-1.579v-9.928A.4.4,0,0,0,18.72,126.448Z" transform="translate(0 -124.102)" fill="#a57bff"/>
      </g>
    </g>
  </g>
</svg>
