<svg xmlns="http://www.w3.org/2000/svg" xmlns:xlink="http://www.w3.org/1999/xlink" width="196.64" height="131.611" viewBox="0 0 196.64 131.611">
  <defs>
    <filter id="Path_1114" x="40.782" y="17.489" width="113.883" height="63.64" filterUnits="userSpaceOnUse">
      <feOffset dy="3" input="SourceAlpha"/>
      <feGaussianBlur stdDeviation="3" result="blur"/>
      <feFlood flood-opacity="0.161"/>
      <feComposite operator="in" in2="blur"/>
      <feComposite in="SourceGraphic"/>
    </filter>
    <filter id="Path_1115" x="42.955" y="65.776" width="109.211" height="56.294" filterUnits="userSpaceOnUse">
      <feOffset dy="-1" input="SourceAlpha"/>
      <feGaussianBlur stdDeviation="1.5" result="blur-2"/>
      <feFlood flood-opacity="0.329"/>
      <feComposite operator="in" in2="blur-2"/>
      <feComposite in="SourceGraphic"/>
    </filter>
  </defs>
  <g id="email-envlope" transform="translate(1119 -1398.853)">
    <path id="Path_1611" data-name="Path 1611" d="M149.253,66.138c-12.606-.437-24.614-4.507-36.078-8.96S90.352,47.793,78.049,45.433c-7.915-1.517-16.965-1.732-23.342,2.511-6.133,4.076-8.12,11.132-9.185,17.672-.8,4.92-1.274,10.093.922,14.7,1.526,3.2,4.236,5.887,6.11,8.95,6.517,10.659,1.914,23.8-5.155,34.211-3.306,4.883-7.158,9.54-9.714,14.736s-3.74,11.153-1.5,16.454c2.219,5.255,7.5,9.2,13.226,11.978,11.626,5.638,25.327,7.253,38.687,8.167,29.573,2.022,59.305,1.147,88.957.27,10.974-.325,21.995-.654,32.791-2.351,5.993-.941,12.182-2.436,16.532-6.047a13.856,13.856,0,0,0,3.192-18.1c-6.209-9.639-23.38-12.034-27.72-22.379-2.389-5.694.064-12.039,3.536-17.319,7.448-11.331,19.933-21.271,20.59-34.22.452-8.894-5.55-17.8-14.828-22.01-9.728-4.411-23.215-3.856-30.391,3.446C173.369,63.632,160.384,66.525,149.253,66.138Z" transform="translate(-1154.001 1354.414)" fill="#fff"/>
    <g id="Group_61" data-name="Group 61" transform="translate(2858 289)">
      <path id="Path_1189" data-name="Path 1189" d="M424.507,403.4H344.164a9.934,9.934,0,0,1-9.934-9.934V356.661a6.523,6.523,0,0,1,1.84-3.587c12.039-11.412,85.076-10.92,95.627-.918a9.376,9.376,0,0,1,2.744,7.237v34.078A9.934,9.934,0,0,1,424.507,403.4Z" transform="translate(-4263.671 825.123)" fill="#3f3d56"/>
      <g id="Group_28" data-name="Group 28" transform="translate(-2002 -97)">
        <g transform="matrix(1, 0, 0, 1, -1975, 1206.85)" filter="url(#Path_1114)">
          <path id="Path_1114-2" data-name="Path 1114" d="M335.458,355.481l42.574-41.934a8.915,8.915,0,0,1,12.607,0L431.3,355.481C433.354,357.5,334.674,356.253,335.458,355.481Z" transform="translate(-285.67 -287.45)" fill="#3f3d56"/>
        </g>
        <g id="letter" transform="translate(0 -4)">
          <path id="Path_1188" data-name="Path 1188" d="M26.008,0H47.9A26,26,0,0,1,73.906,26c0,6.849,1.51,17.11-4.651,22.149S55.41,52,47.9,52H26.008c-5.846,0-11.079.348-18.359-3.851S0,34.515,0,26A26,26,0,0,1,26.008,0Z" transform="translate(-1914.393 1251.76)" fill="#4d05e8"/>
          <path id="Path_1100" data-name="Path 1100" d="M380.293,338.851a18.063,18.063,0,1,0,18.063,18.063A18.063,18.063,0,0,0,380.293,338.851Zm-3.708,27.694-9.257-9.257,2.6-2.6,6.669,6.669,14.077-14.077,2.6,2.6-16.682,16.665Z" transform="translate(-2257.275 920.123)" fill="#57b894"/>
        </g>
        <g transform="matrix(1, 0, 0, 1, -1975, 1206.85)" filter="url(#Path_1115)">
          <path id="Path_1115-2" data-name="Path 1115" d="M383.836,549.894l-47.349-22.885a1.921,1.921,0,0,0-2.757,1.73v39.375a6,6,0,0,0,6,6h88.214a6,6,0,0,0,6-6v-38.7a2.344,2.344,0,0,0-3.364-2.111Z" transform="translate(-286.28 -455.54)" fill="#3f3d56"/>
        </g>
      </g>
    </g>
  </g>
</svg>
