<svg xmlns="http://www.w3.org/2000/svg" xmlns:xlink="http://www.w3.org/1999/xlink" width="194" height="127.537" viewBox="0 0 194 127.537">
  <defs>
    <linearGradient id="linear-gradient" x1="0.5" y1="1" x2="0.5" gradientUnits="objectBoundingBox">
      <stop offset="0" stop-color="gray" stop-opacity="0.251"/>
      <stop offset="0.54" stop-color="gray" stop-opacity="0.122"/>
      <stop offset="1" stop-color="gray" stop-opacity="0.102"/>
    </linearGradient>
    <linearGradient id="linear-gradient-2" x1="0.5" y1="1" x2="0.5" y2="0" xlink:href="#linear-gradient"/>
    <filter id="Path_1417" x="68.825" y="48.894" width="55.469" height="46.411" filterUnits="userSpaceOnUse">
      <feOffset dx="2" dy="3" input="SourceAlpha"/>
      <feGaussianBlur stdDeviation="3" result="blur"/>
      <feFlood flood-opacity="0.322"/>
      <feComposite operator="in" in2="blur"/>
      <feComposite in="SourceGraphic"/>
    </filter>
  </defs>
  <g id="logged-in" transform="translate(3355 -2618)">
    <path id="Path_1344" data-name="Path 1344" d="M205.292,176.91q-.908.8-1.857,1.551c-.106.086-.216.169-.324.257a65.207,65.207,0,0,1-7.09,4.789l-.461.268c-.111.068-.221.13-.338.192-2.576,1.487-5.248,2.856-7.953,4.153l-.029.015-.2.1q-3.272,1.568-6.641,3l-.054.02q-1.519.64-3.039,1.246c-.414.169-.829.326-1.244.486-.782.3-1.565.593-2.355.874l-.1.037-.169.059-.211.078q-3.091,1.1-6.265,2.039l-.037.01q-2.213.645-4.455,1.194l-.2.051c-2.195.53-4.425.986-6.668,1.351l-.517.083q-2.461.387-4.956.631c-9.351.9-18.813.169-28.106-1.091-18.766-2.546-37.283-7.318-54.171-14.8q-4.862-2.152-9.535-4.609c-.025-.014-.047-.027-.073-.039q-2.8-1.47-5.519-3.064c-.532-.307-1.06-.621-1.585-.937q-.969-.584-1.93-1.182-1.266-.79-2.532-1.619l-.4-.263-.152-.1c-.214-.143-.425-.287-.638-.432-7.934-5.4-15.009-11.949-18.352-20.141-3.863-9.454-1.391-21.44,8.176-27.027a38,38,0,0,1,10.973-3.832l.4-.088c.653-.143,1.307-.282,1.957-.42,2.277-.483,4.566-.962,6.834-1.5h0c1.182-.279,2.352-.571,3.515-.886l.476-.132a56.909,56.909,0,0,0,8.206-2.89h.017q.428-.19.844-.393c.179-.084.358-.169.537-.262a31.8,31.8,0,0,0,8.247-5.768c.187-.189.37-.382.547-.574.137-.15.272-.3.4-.454a11.536,11.536,0,0,0,2.99-6.285h0a8.1,8.1,0,0,0-.1-2.267c-.265-1.416-.522-2.8-.711-4.155a21.291,21.291,0,0,1,.017-7.311h0a13.762,13.762,0,0,1,3.783-6.913q.488-.506,1.052-1.013a22.162,22.162,0,0,1,5.846-3.694l.8-.338c5.922-2.4,13.038-2.9,19.686-2.566a107.391,107.391,0,0,1,18.445,2.566c.481.108.962.221,1.44.338a127.854,127.854,0,0,1,15.193,4.7,188.629,188.629,0,0,1,36.434,19.015l.338.219q.712.464,1.416.932,1.362.9,2.7,1.818l.6.41q.446.3.886.609l.9.626h0a.992.992,0,0,1,.122.086l.77.533c.446.311.888.623,1.332.937h0l.952.675c.2.142.4.282.594.425l1.013.739.226.169c.047.034.095.068.14.1l.029.019c2.745,2.014,5.424,4.1,7.934,6.315l.324.287.034.03c.273.243.547.49.815.738a54.959,54.959,0,0,1,8.616,9.737C223.906,140.753,220.633,163.426,205.292,176.91Z" transform="translate(-3380.39 2545.743)" fill="#fff"/>
    <path id="Path_1345" data-name="Path 1345" d="M865.248,240.493c.108-.294-.7-1.924-.7-2.006s-.844-.988-.844-1.5-1.1-1.6-1.1-1.6a2.8,2.8,0,0,1-1.644-1.952c-.162-1.335-1.715-1.364-1.776-1.366,0,0,0-.122.01-.307a4.463,4.463,0,0,0-.2-1.563,1.587,1.587,0,0,0-.915-.778,3.526,3.526,0,0,0-.486-1.362,1.535,1.535,0,0,1-.375-1.445,1.917,1.917,0,0,0-.211-1.247,1.278,1.278,0,0,0-.787-.731h-.029c-.773-.187-1.639-.474-1.639-.474s-.088.017-.218.035l-.108-.035a4.821,4.821,0,0,1-.564.071.7.7,0,0,1-.457-.15,9.275,9.275,0,0,0-2.855-.856,6.782,6.782,0,0,1-1.563-.535l-1.156-.883a7.378,7.378,0,0,1-1.013-1.4l-.013-.019h0a4.586,4.586,0,0,1-.213-.589c-.012-.037-.02-.074-.032-.115h0a6.444,6.444,0,0,0,.643-.79v-.008c.052-.073.1-.152.15-.228q.106-.169.2-.349c.027-.052.052-.106.079-.157a.674.674,0,0,0,.169-.029l.073-.027a.854.854,0,0,0,.186-.116l.054-.049a1.318,1.318,0,0,0,.338-.518c.019-.057.036-.116.049-.169a.25.25,0,0,1,.015-.061c.005-.019.019-.081.025-.123l.01-.068a.676.676,0,0,1,.02-.12.229.229,0,0,0,0-.069c0-.049.013-.1.019-.152.024-.191.044-.378.084-.564a.015.015,0,0,0,0-.008,4.316,4.316,0,0,1,.4-1.026c.169-.326.355-.647.506-.983h0c.044-.1.086-.194.123-.292s.074-.216.108-.326a.445.445,0,0,1,.024-.1,2.365,2.365,0,0,0,.054-.241.841.841,0,0,0,.02-.106c.02-.111.034-.223.044-.338a4.144,4.144,0,0,0-.277-1.879c-.2-.506-.507-.954-.707-1.455-.309-.761-.39-1.622-.768-2.348a2.8,2.8,0,0,0-3.354-1.366c-.584.216-1.092.64-1.688.831a5.581,5.581,0,0,1-2.47-.052,3.07,3.07,0,0,0-2.4.414c-.761.62-.971,1.784-1.688,2.463a3.887,3.887,0,0,1-.562.422c-.145.1-.292.2-.429.311a1.6,1.6,0,0,0-.5.675.588.588,0,0,0-.019.057.532.532,0,0,0-.018.069.712.712,0,0,1-.012.079.294.294,0,0,0,0,.056.939.939,0,0,0,0,.122h0v.02a.771.771,0,0,0,.022.135v.037a.678.678,0,0,0,.034.111.083.083,0,0,1,0,.022,1.242,1.242,0,0,0,.049.122.2.2,0,0,0,.024.061.229.229,0,0,1,.024.051,3.192,3.192,0,0,1,.25.62.7.7,0,0,1-.025.412.657.657,0,0,1-.108.181,2.263,2.263,0,0,1-.189.209,5.591,5.591,0,0,0-1.217,1.946c-.03.083-.059.169-.086.252h0l.035.01.035.008a1.184,1.184,0,0,0,.2.042,1.211,1.211,0,0,0,.135.015,2.089,2.089,0,0,0,.55-.044.836.836,0,0,0,.089-.02h0a.1.1,0,0,0,.027-.008h.017a2.922,2.922,0,0,0,.442-.154c.034-.015.069-.029.1-.046v.628a6.353,6.353,0,0,0,3.234,5.164c.1.056.191.108.289.157.008.057.017.116.024.169s.013.1.019.145l-.074-.069a.492.492,0,0,0-.2-.041.645.645,0,0,0-.321.083,1.182,1.182,0,0,0-.42.41,2.994,2.994,0,0,1-1.32,1.013s-4.9.775-5.088,1.416l-2.289.135s-.809.106-.888,1.791v.039c-.012.2-.027.38-.046.54v.024c-.142,1.123-.463,1.242-.463,1.242a6.389,6.389,0,0,0-.863,2.514.087.087,0,0,1,0,.02h0a1.1,1.1,0,0,1-.022.346,1.52,1.52,0,0,1-.706.91l-.106,1.519a1.035,1.035,0,0,0-1.131.91,3.6,3.6,0,0,1-.675,1.519s-1.48,1.231-1.561,2.272l-.917.562s-2.125-.481-2.612-1.337c0,0-.057-.057-.148-.14l-.014-.02a.056.056,0,0,0,0,.01,7.45,7.45,0,0,0-.89-.785.661.661,0,0,1,.044.432l-.159-.169-.424-.473s-.606-.567-1.459-1.244h0q-.292-.233-.616-.476a8.742,8.742,0,0,0-3.376-1.752c-.02-.041-.1-.346-.292-.346a.321.321,0,0,0-.209.1,2.809,2.809,0,0,0-.019,4.119l.221.206.685.641L814.8,239.4c.029.02.056.042.084.061l.137.169.106.137.184.235.265.338c-.013.035-.029.069-.041.1-.1.243-.186.479-.257.7v.024c-.017.054-.034.1-.049.155a.209.209,0,0,1-.017.052c-.017.051-.03.1-.046.147a.7.7,0,0,0-.024.088.472.472,0,0,1-.017.052c-.076.268-.123.474-.148.589l-.179-.056.169.076a.225.225,0,0,1,0,.029l-.01.054c.052.025.108.049.169.073l.039.017.662.292h0c.133.059.279.122.434.192s.275.123.425.187h0a38.8,38.8,0,0,1,4.323,2.1,3.4,3.4,0,0,0,3.663.506,3.856,3.856,0,0,0,1.963-2.168,22.483,22.483,0,0,0,1.617-2.485c.041-.246.763-.525,1.1-.641l.032-.01.135-.044v.409a20.722,20.722,0,0,1-.246,3.581.019.019,0,0,0,0,.01,3.9,3.9,0,0,1-.268.895,61.867,61.867,0,0,0-1.776,7.114h.027a.782.782,0,0,1,.2-.01c-.024.108-.039.192-.051.25s-.017.086-.017.086h.02a.777.777,0,0,1,.2-.012.411.411,0,0,1,.066.008,1.041,1.041,0,0,1-.017.122v.042c0,.007-.01.052-.013.081-.14.966-.545,3.479-.545,3.479a7.96,7.96,0,0,1-.432,1.87,4.636,4.636,0,0,0-.226,1.351c0,.084-.012.169-.019.257-.044.716-.051,1.386-.051,1.386l-.012.044-.4,1.8c.007.017.014.033.022.049h0c.029.054.074.147.14.262h0l.02.044a5.03,5.03,0,0,0,.935,1.317,2.441,2.441,0,0,0,.284.241h0a.3.3,0,0,1-.012.059c0,.017-.01.064-.015.095a2.727,2.727,0,0,1-.191.675,2.26,2.26,0,0,0-.194.736h0a3.383,3.383,0,0,0-.017.547l-.022.1h0c-.059.275-.228,1.082-.319,1.739-.022.15-.042.3-.054.43a2.1,2.1,0,0,0,0,.376,3.092,3.092,0,0,1-.034.631,1.429,1.429,0,0,1-.022.186c-.091.594-.241,1.217-.241,1.217l-.484,4.651v.275a.532.532,0,0,1-.01.122c0,.11-.017.24-.029.392a1.455,1.455,0,0,1-.01.169.885.885,0,0,1-.01.16v.088a.794.794,0,0,1-.008.133.648.648,0,0,0,0,.128v.12c-.015.248-.032.517-.044.788v.26a1.948,1.948,0,0,1-.012.26v1.719a4.921,4.921,0,0,0,.04.537c.019.132.032.27.039.412v.2a.936.936,0,0,1,0,.1v.756c-.042.581-.122,1.052-.133,1.126h0v.159c0,.042.01.1.015.155v.084h0a.333.333,0,0,0,.01.1c.01.034,0,.032,0,.051,0,.061.01.123.017.189s.015.137.02.208l.01.133c0,.064.013.132.018.2v.068c0,.046.01.089.014.137l.015.208c0,.046.01.093.013.138a.482.482,0,0,1,0,.071l.022.273a.722.722,0,0,0,.008.135,2.111,2.111,0,0,0,.017.211c.007.068,0,.155.012.226a1.448,1.448,0,0,1,.01.206,2.847,2.847,0,0,1,0,.572c-.044.192-.186.731-.267,1.315,0,.052-.015.1-.02.159a.571.571,0,0,0,0,.095l-.01.127c0,.1-.012.2-.012.3a2.341,2.341,0,0,0,.076.675,3.186,3.186,0,0,1,.084.446.229.229,0,0,0,.008.074c0,.054.012.11.017.169s.008.115.012.169c0,.118.01.24.015.363v.245c.012.712-.022,1.41-.032,1.589v.044s.169,3,.349,3.957c.024.127.041.255.052.387a.859.859,0,0,0,.008.147,7.527,7.527,0,0,1-.115,1.661,18.246,18.246,0,0,1-.268,2.058,1.318,1.318,0,0,0-.241.8v.014a2.6,2.6,0,0,0,.886,2l.081.079.1-.037c.79-.282,1.573-.576,2.355-.874.415-.16.831-.321,1.244-.486q1.533-.606,3.039-1.246h0a.193.193,0,0,1-.1-.122,5.5,5.5,0,0,1,.123-1.884c.047-.2.485-4.361.485-4.361a5.392,5.392,0,0,1,.054-1.869,8.918,8.918,0,0,0-.27-2.73.483.483,0,0,1,.135-.588c.3-.321.189-3.182.189-3.182s-.027-1.445-.027-1.82a6.676,6.676,0,0,1,.618-2.195,4.3,4.3,0,0,0,.11-1.874h0l.017-.108a1.064,1.064,0,0,1,.024-.15l.025-.143a19.838,19.838,0,0,1,.523-2.321c.351-1.123.755-3.1.755-3.1l2.355-6.315h0l.078-.2.029-.078a10.262,10.262,0,0,1,1.156,4.119,23.853,23.853,0,0,1,.218,3.022,36.433,36.433,0,0,0,.242,3.663s.348,4.334.348,4.519a26.324,26.324,0,0,0,.7,4.026,3.556,3.556,0,0,1-.43,2.22,34.356,34.356,0,0,0,.054,4.092s-.407,3.1-.486,3.743c-.015.116-.039.292-.064.506,2.7-1.3,5.377-2.666,7.953-4.153.111-.062.221-.125.338-.192l.019-3.837a9.7,9.7,0,0,0-.027-2.515c-.216-.724-.431-2.11-.133-2.485s.027-2.112.027-2.112a21.363,21.363,0,0,1,.4-4.573c.4-.908.27-6.658.27-6.658l.106-3.771s.859-.814.675-5.029v-.143a7.075,7.075,0,0,1,2.157.039,4.3,4.3,0,0,0,2.821.908h0a1.374,1.374,0,0,0,.517-.214,15.2,15.2,0,0,0,1.35-1.043l-.429-7.214h0l-.046-.8c.081.123.152.233.213.338.169.257.262.414.262.414,0-1.123,3.179-4.759,3.179-4.759a51.913,51.913,0,0,1,3.608-4.279,13.657,13.657,0,0,0,1.913-2.861,11.668,11.668,0,0,1,.646-1.337C866.114,242.071,865.14,240.786,865.248,240.493Zm-9.479,5.134a1.675,1.675,0,0,1-.358.721c-.014-.169-.027-.326-.041-.495v-.044a54.7,54.7,0,0,1-.3-5.478,6.531,6.531,0,0,0,.111-1.381h0c.012-.647,0-1.263,0-1.263h0l.03-.042a13.487,13.487,0,0,0,2.23,3.657s.3.856.647.883.214,1.123.214,1.123a1.273,1.273,0,0,0-.459.169,4.034,4.034,0,0,0-.476.322h0A5.247,5.247,0,0,0,855.769,245.626Z" transform="translate(-4033.119 2435.02)" fill="url(#linear-gradient)"/>
    <path id="Path_1346" data-name="Path 1346" d="M837,400.516s.983-5.149,4.139-5.176l2.309,4.75-1.553,1.055S838.56,401.252,837,400.516Z" transform="translate(-4054.987 2277.202)" fill="#65617d"/>
    <path id="Path_1347" data-name="Path 1347" d="M843.442,400.109l-1.546,1.062a18.253,18.253,0,0,1-4.035-.338,4.614,4.614,0,0,1-.861-.292.313.313,0,0,1,.017-.083.141.141,0,0,1,0-.02,11.72,11.72,0,0,1,.6-1.891c.1-.231.208-.469.326-.707a4.831,4.831,0,0,1,2-2.195,2.737,2.737,0,0,1,1.052-.275h.14l.052.1.78,1.605Z" transform="translate(-4054.987 2277.177)" opacity="0.1"/>
    <path id="Path_1348" data-name="Path 1348" d="M1018.594,477.621s3.317-.317,3.609-.079,2.176,1.46,3.292.69.372-3.451.372-3.557-.106-3.9-.106-3.9l-1.99-2.681-2.5-4.7-5.095-.506.132,7.458-.025,3.822Z" transform="translate(-4203.919 2221.055)" fill="#65617d"/>
    <path id="Path_1349" data-name="Path 1349" d="M1018.594,477.621s3.317-.317,3.609-.079,2.176,1.46,3.292.69.372-3.451.372-3.557-.106-3.9-.106-3.9l-1.99-2.681-2.5-4.7-5.095-.506.132,7.458-.025,3.822Z" transform="translate(-4203.919 2221.055)" opacity="0.1"/>
    <path id="Path_1350" data-name="Path 1350" d="M820.292,370.459s-.262,3.238-2.287,3.289a15.866,15.866,0,0,1-1.34-.92c-1.773-1.325-4.583-3.874-3.807-6.246,1.114-3.4,6.528,2.87,6.528,2.87l.417.466Z" transform="translate(-4034.81 2301.944)" fill="#a5636d"/>
    <path id="Path_1351" data-name="Path 1351" d="M838.857,391.835s-.262,3.238-2.287,3.289a15.87,15.87,0,0,1-1.34-.92l-.169-.221a2.637,2.637,0,0,0,1.106.3,1.482,1.482,0,0,0,1.443-.91,11.708,11.708,0,0,0,.559-1.285,3.862,3.862,0,0,0,.2-.8Z" transform="translate(-4053.375 2280.568)" opacity="0.1"/>
    <path id="Path_1352" data-name="Path 1352" d="M838.762,396.379l-.454-.584-1.519-1.967-.788-1a2.635,2.635,0,0,0,1.1.3,1.48,1.48,0,0,0,1.443-.91,11.376,11.376,0,0,0,.559-1.285c.252-.716.247-1.084.157-1.209a8.133,8.133,0,0,1,.878.78l.012.01.145.138.056.108.768,1.538v.064C841.193,392.844,841.451,395.94,838.762,396.379Z" transform="translate(-4054.156 2281.889)" fill="#e7effd"/>
    <path id="Path_1353" data-name="Path 1353" d="M905.4,533.995a.78.78,0,0,0-.159-.1h-.014c-.317-.133-.027-1.779.027-1.992s.478-4.318.478-4.318a5.594,5.594,0,0,1,.054-1.857,9.063,9.063,0,0,0-.267-2.7.5.5,0,0,1,.133-.584c.292-.319.186-3.159.186-3.159s-.025-1.432-.025-1.8a6.583,6.583,0,0,1,.609-2.176,4.238,4.238,0,0,0,.106-1.857h0l.015-.108c.008-.039.015-.089.024-.149l.025-.142a.7.7,0,0,1,.019-.108c.015-.084.032-.169.051-.277.01-.061.022-.125.036-.189.039-.2.084-.425.133-.653.015-.071.032-.143.049-.214s.041-.169.063-.257c.014-.052.025-.1.041-.155.039-.155.081-.306.127-.449.338-1.116.745-3.079.745-3.079l2.466-6.479.029-.078.078.15h0a9.935,9.935,0,0,1,1.062,3.935,23.385,23.385,0,0,1,.213,3,35.517,35.517,0,0,0,.24,3.636s.338,4.3.338,4.484a26.507,26.507,0,0,0,.691,4.008,3.5,3.5,0,0,1-.425,2.195,33.876,33.876,0,0,0,.054,4.062s-.4,3.078-.479,3.714c-.017.152-.051.407-.086.719l.2-.1.029-.015c2.7-1.3,5.377-2.666,7.953-4.153l.022-4.07a9.756,9.756,0,0,0-.025-2.495c-.211-.716-.426-2.1-.135-2.47s.029-2.095.029-2.095a21.385,21.385,0,0,1,.4-4.538c.4-.9.267-6.609.267-6.609l.1-3.741s.866-.826.662-5.134c-.022-.459-.056-.957-.1-1.5-.147-1.626-.3-3.1-.431-4.372-.012-.11-.024-.218-.035-.322-.013-.142-.03-.282-.044-.419-.032-.289-.062-.566-.093-.829-.01-.078-.019-.154-.027-.23q-.066-.567-.123-1.047c-.014-.125-.03-.248-.044-.365-.022-.169-.042-.338-.061-.495a.851.851,0,0,0-.015-.111,1.422,1.422,0,0,0-.024-.194c-.088-.689-.14-1.065-.14-1.065h-.024l-2.669.024-5.826.056h-.17l-3.039.029h-.186l-1.459.015h-.248l-3.039.029h-.184l-1.248,5.142-2.547,5.839s-.039.64-.128,1.264v.037a.122.122,0,0,1-.01.061.431.431,0,0,0-.015.095,3.278,3.278,0,0,1-.214.826,2.063,2.063,0,0,0-.169.582,3.412,3.412,0,0,0-.039.647h0v.035s-.2.92-.321,1.7c-.022.15-.042.3-.054.431a2.724,2.724,0,0,0-.024.495,2.776,2.776,0,0,1-.019.506,1.426,1.426,0,0,1-.022.186c-.083.621-.25,1.317-.25,1.317l-.479,4.619a.105.105,0,0,1,0,.015v.192a.529.529,0,0,1-.01.122c0,.11-.017.24-.029.392a1.482,1.482,0,0,1-.01.169.88.88,0,0,1-.01.16v.088a.793.793,0,0,1-.008.133.653.653,0,0,0,0,.128v.12c-.014.248-.03.517-.042.788v.26a1.949,1.949,0,0,1-.012.26v1.732a4.609,4.609,0,0,0,.041.564c.017.125.03.253.039.385v1.05c-.042.581-.121,1.052-.133,1.126h0v.159c0,.042.01.1.015.155v.084h0a.333.333,0,0,0,.01.1c.01.034,0,.032,0,.051a1.889,1.889,0,0,0,.017.189c.007.066.013.137.02.208l.01.133c0,.064.014.132.019.2v.068c0,.046.01.089.014.137l.015.208c0,.046.01.093.013.138v.071l.022.273a.729.729,0,0,0,.008.135,2.11,2.11,0,0,0,.017.211c.007.068,0,.155.012.226a1.447,1.447,0,0,1,.01.206,3,3,0,0,1,0,.554,12.94,12.94,0,0,0-.263,1.334c0,.052-.015.1-.02.159a.565.565,0,0,0,0,.095l-.01.127c0,.1-.012.2-.012.3a2.321,2.321,0,0,0,.076.636,3.6,3.6,0,0,1,.093.56c.013.108.022.223.029.338s.01.24.015.363v.245c.01.8-.034,1.568-.034,1.568a.187.187,0,0,0,0,.02v.013c.017.338.169,3,.338,3.895a4.054,4.054,0,0,1,.059.479.861.861,0,0,0,.008.147,7.738,7.738,0,0,1-.12,1.551,18.57,18.57,0,0,1-.327,2.061,1.439,1.439,0,0,0-.238.923v.014a2.623,2.623,0,0,0,.876,1.857l.189.189c.79-.282,1.573-.576,2.355-.875.415-.16.831-.321,1.244-.486q1.533-.606,3.039-1.246Z" transform="translate(-4105.39 2202.977)" fill="#3f3d56"/>
    <path id="Path_1354" data-name="Path 1354" d="M981.919,283.27l-3.928,4.2s-5.041-2.026-4.511-2.7a3.936,3.936,0,0,0,.054-2.039c-.186-1.47-.584-3.164-.584-3.164s8.81-1.433,8.066.054a2.437,2.437,0,0,0-.056,1.762A6.679,6.679,0,0,0,981.919,283.27Z" transform="translate(-4167.987 2373.952)" fill="#a5636d"/>
    <path id="Path_1355" data-name="Path 1355" d="M981.016,279.577c-.27.542-.4.594-.231,1.182-1.151,1.236-2.617,2.588-4.438,2.588a6.286,6.286,0,0,1-2.812-.658c-.186-1.47-.584-3.164-.584-3.164S981.76,278.09,981.016,279.577Z" transform="translate(-4167.987 2373.983)" opacity="0.1"/>
    <path id="Path_1356" data-name="Path 1356" d="M968.284,235.533a6.317,6.317,0,1,1-12.634,0q0-.046,0-.091a6.317,6.317,0,1,1,12.633.091Z" transform="translate(-4153.607 2415.319)" fill="#a5636d"/>
    <path id="Path_1357" data-name="Path 1357" d="M948.427,496.47c-.844,0-3.623.03-6.736.079h-.039l-1.028.017h-.032c-3.692.059-7.33-.662-8.79-.525-3.106.292,1.114-2.87,1.114-2.87a26,26,0,0,0,7.073.716l.893-.047a37.984,37.984,0,0,0,7.139-.869C948.125,493.794,948.275,494.987,948.427,496.47Z" transform="translate(-4132.837 2196.053)" opacity="0.1"/>
    <path id="Path_1358" data-name="Path 1358" d="M948.427,495.53c-.844,0-3.623.029-6.736.079h-.039l-1.028.017h-.032c-3.692.059-7.33-.662-8.79-.525-3.106.29,1.114-2.87,1.114-2.87a25.953,25.953,0,0,0,7.073.714l.893-.046a38.113,38.113,0,0,0,7.139-.869C948.125,492.854,948.275,494.051,948.427,495.53Z" transform="translate(-4132.837 2196.834)" fill="#5f5d7e"/>
    <path id="Path_1359" data-name="Path 1359" d="M940.41,310.279l-4.884,2.282L931.76,341.7s2.228-1.013,3.5-.371,5.2.054,5.2.054,2.87-.169,3.29.159,5.416-1.327,5.416-1.327.9-2.017.211-2.335.213-3.456.213-3.456L949.17,313.4l-.844-2.7-2.282-1.379-2.335,1.857-1.114.16Z" transform="translate(-4133.75 2348.7)" opacity="0.1"/>
    <path id="Path_1360" data-name="Path 1360" d="M940.41,308.4l-4.882,2.282-3.768,29.141s2.228-1.013,3.5-.371,5.2.052,5.2.052,2.87-.159,3.29.159,5.416-1.327,5.416-1.327.9-2.016.211-2.335.213-3.451.213-3.451l-.424-21.019-.844-2.7-2.282-1.381-2.335,1.857-1.114.159Z" transform="translate(-4133.75 2350.254)" fill="#e7effd"/>
    <path id="Path_1361" data-name="Path 1361" d="M963.887,319.005s1.408,1.671,1.381,2.017-.079,1.167-.079,1.167l-1.053,2.151s-.584,2.681-.584,3.238-.928,5.387-.928,5.387l-1.114,7.428-1.408,9.741,1.433,2.468,1.7-1.433,2.254-17.354.478-3.424s.506-6.157.506-6.793a21.7,21.7,0,0,0-.292-2.309,2.718,2.718,0,0,1,1.779-1.963c1.433-.371-.106-.081-.106-.081l-.822-.663-.717.292S964.312,318.263,963.887,319.005Z" transform="translate(-4157.306 2341.003)" opacity="0.1"/>
    <path id="Path_1362" data-name="Path 1362" d="M962.9,318.065s1.406,1.671,1.381,2.016-.081,1.168-.081,1.168l-1.062,2.151s-.584,2.679-.584,3.236-.929,5.389-.929,5.389l-1.116,7.428-1.406,9.739,1.433,2.468,1.7-1.433,2.254-17.353.478-3.424s.506-6.157.506-6.795a21.594,21.594,0,0,0-.292-2.308,2.7,2.7,0,0,1,1.778-1.965c1.44-.371-.1-.079-.1-.079l-.824-.663-.716.292S963.322,317.321,962.9,318.065Z" transform="translate(-4156.475 2341.785)" fill="#4d05e8"/>
    <path id="Path_1363" data-name="Path 1363" d="M970.862,303.65s-.213.159-.265,1.221a21.194,21.194,0,0,1-.8,3.451s2.76-1.911,4.141-1.7Z" transform="translate(-4165.369 2353.413)" opacity="0.1"/>
    <path id="Path_1364" data-name="Path 1364" d="M970.862,301.76s-.213.16-.265,1.221a21.24,21.24,0,0,1-.8,3.451s2.76-1.911,4.141-1.7Z" transform="translate(-4165.369 2354.984)" fill="#e7effd"/>
    <path id="Path_1365" data-name="Path 1365" d="M999.345,298.62,995,302.442a45.124,45.124,0,0,1,4.141,2.7c.478.525.956-5.2.956-5.2Z" transform="translate(-4186.314 2357.594)" opacity="0.1"/>
    <path id="Path_1366" data-name="Path 1366" d="M1000.252,296.73l-4.352,3.822a45.125,45.125,0,0,1,4.139,2.7c.478.525.956-5.2.956-5.2Z" transform="translate(-4187.063 2359.165)" fill="#e7effd"/>
    <path id="Path_1367" data-name="Path 1367" d="M914.661,303.452s-.478-.24-.929.451a3.02,3.02,0,0,1-1.3,1.013s-4.831.77-5.017,1.406l-2.255.132s-.8.1-.871,1.784-.506,1.83-.506,1.83a6.293,6.293,0,0,0-.844,2.5,1.382,1.382,0,0,1-.717,1.275l3.324,8.616s.106,3.557-.506,4.857a61.364,61.364,0,0,0-1.752,7.06s.478-.106.451.213-.584,3.8-.584,3.8a7.644,7.644,0,0,1-.424,1.857,13.529,13.529,0,0,0-.292,2.973l-.437,1.8s1.013,2.255,2.549,1.936,4.325-6.342,4.325-6.342l1.778-6.5,1.381-6.423.4-4.352.636-9.634.928-6.369S915.038,303.9,914.661,303.452Z" transform="translate(-4109.014 2353.611)" opacity="0.1"/>
    <path id="Path_1368" data-name="Path 1368" d="M913.76,301.565s-.478-.238-.928.452a3.022,3.022,0,0,1-1.3,1.013s-4.83.77-5.016,1.406l-2.255.133s-.8.106-.876,1.778-.506,1.832-.506,1.832a6.32,6.32,0,0,0-.844,2.5,1.381,1.381,0,0,1-.716,1.273l3.312,8.62s.106,3.557-.506,4.857a61.294,61.294,0,0,0-1.751,7.06s.478-.106.451.213-.584,3.8-.584,3.8a7.642,7.642,0,0,1-.424,1.857,13.53,13.53,0,0,0-.292,2.973l-.422,1.813s1.013,2.255,2.547,1.938,4.327-6.344,4.327-6.344l1.778-6.5,1.381-6.415.4-4.352.638-9.633.928-6.369S914.131,302.017,913.76,301.565Z" transform="translate(-4108.266 2355.179)" fill="#65617d"/>
    <path id="Path_1369" data-name="Path 1369" d="M842.627,399.277l-1.546,1.062a18.256,18.256,0,0,1-4.035-.338l-.858-.38-.169-.076.177.056a3.5,3.5,0,0,0,2.124.076c2.179-.733,1.938-4.33,1.857-5.144a.729.729,0,0,0-.017-.154.035.035,0,0,1,0-.01l.013.02a.968.968,0,0,0,.1.14,1.131,1.131,0,0,0,.1.1h0l.768,1.538v.064Z" transform="translate(-4054.173 2278.008)" opacity="0.1"/>
    <path id="Path_1370" data-name="Path 1370" d="M848.743,362l-.743.213-.106,1.519a1.02,1.02,0,0,0-1.114.9,3.691,3.691,0,0,1-.663,1.519s-1.46,1.221-1.54,2.255l-.9.557s-2.1-.478-2.575-1.327c0,0,.956,6.847-4.139,5.176,0,0,5.706,2.5,5.971,2.84a3.354,3.354,0,0,0,3.609.506,3.829,3.829,0,0,0,1.938-2.176,22.178,22.178,0,0,0,1.592-2.468c.052-.319,1.248-.69,1.248-.69l2.282-5.519Z" transform="translate(-4054.954 2304.913)" fill="#65617d"/>
    <path id="Path_1371" data-name="Path 1371" d="M1014.527,300.233l.77-3.5a3.988,3.988,0,0,0,.69,1.406c.353.265,1.141.876,1.141.876a6.63,6.63,0,0,0,1.538.532,9.258,9.258,0,0,1,2.814.844c.265.287,1.327.079,1.327.079s.876.292,1.646.478,1.141,1.46.981,1.963a1.535,1.535,0,0,0,.371,1.433,3.4,3.4,0,0,1,.478,1.351,1.556,1.556,0,0,1,.9.77,5.357,5.357,0,0,1,.186,1.857l-3.954,5.571a16.246,16.246,0,0,1-.106,2.627c-.159.478.557,8.6.557,8.6l.822,13.959a14.675,14.675,0,0,1-1.327,1.035c-.24.106-.478-4.936-.478-5.122s-6.13-9.184-6.13-9.184a8.233,8.233,0,0,1-.824-1.619c0-.292-.77-2.971-.77-2.971L1014,316.051Z" transform="translate(-4202.107 2359.165)" opacity="0.1"/>
    <path id="Path_1372" data-name="Path 1372" d="M1029.255,307.991c0,.182-.01.3-.01.3l-3.952,5.571h0a16.254,16.254,0,0,1-.1,2.628c-.093.277.11,3.133.3,5.478.133,1.688.26,3.12.26,3.12l.348,5.922.473,8.039a14.853,14.853,0,0,1-1.325,1.035c-.238.106-.478-4.936-.478-5.124s-6.135-9.185-6.135-9.185a8.259,8.259,0,0,1-.822-1.621c0-.292-.77-2.973-.77-2.973l-1.167-5.174.53-15.818.451-3.5a7.5,7.5,0,0,0,1.013,1.406c.349.263,1.139.876,1.139.876a6.623,6.623,0,0,0,1.54.532,9.26,9.26,0,0,1,2.814.844c.267.287,1.327.079,1.327.079s.875.292,1.644.478,1.141,1.46.983,1.963a1.53,1.53,0,0,0,.371,1.433,3.418,3.418,0,0,1,.478,1.35,1.561,1.561,0,0,1,.9.77A4.562,4.562,0,0,1,1029.255,307.991Z" transform="translate(-4203.661 2359.198)" fill="#65617d"/>
    <path id="Path_1373" data-name="Path 1373" d="M906.751,782.851c-.414.169-.829.326-1.244.486-1.3-.38-2.517-.827-2.517-.827A34.566,34.566,0,0,1,906.751,782.851Z" transform="translate(-4109.837 1955.392)" opacity="0.1"/>
    <path id="Path_1374" data-name="Path 1374" d="M999.67,700.6s3.159.743,3.344,1.248Z" transform="translate(-4190.196 2023.474)" opacity="0.1"/>
    <path id="Path_1375" data-name="Path 1375" d="M923.831,714.12s-1.646.478-.052,1.433S923.831,714.12,923.831,714.12Z" transform="translate(-4126.539 2012.237)" opacity="0.1"/>
    <path id="Path_1376" data-name="Path 1376" d="M970.74,559.853c.186,0,3.079-.956,4.087-.53a6.7,6.7,0,0,0,2.257.424Z" transform="translate(-4166.15 2140.993)" opacity="0.1"/>
    <path id="Path_1377" data-name="Path 1377" d="M954.465,573.785l-.029.263-2.475,6.472s-.4,1.963-.745,3.077a20.2,20.2,0,0,0-.516,2.3l2.195-13.583Z" transform="translate(-4149.493 2130.099)" opacity="0.1"/>
    <path id="Path_1378" data-name="Path 1378" d="M987.583,499.906l-1.028.017h-.032l-.6-2.676c.3-.013.594-.029.893-.047Z" transform="translate(-4178.768 2192.537)" fill="#3f3d56"/>
    <path id="Path_1379" data-name="Path 1379" d="M1017.37,481.466l-.66.545-2.2,1.818s-5.971,3.186-7.615.159c-1.45-2.666,5.319-4.568,6.95-4.983.221-.056.348-.084.348-.084Z" transform="translate(-4196.033 2207.731)" fill="#a5636d"/>
    <path id="Path_1380" data-name="Path 1380" d="M918.87,339.49s1.167.532,1.432,1.275S918.87,339.49,918.87,339.49Z" transform="translate(-4123.037 2323.623)" opacity="0.1"/>
    <path id="Path_1381" data-name="Path 1381" d="M891.69,386.66s-1.7,2.07-1.013,2.87S891.69,386.66,891.69,386.66Z" transform="translate(-4099.468 2284.416)" opacity="0.1"/>
    <path id="Path_1382" data-name="Path 1382" d="M1069.226,346.41s-1.592.159-1.646,1.54Z" transform="translate(-4246.642 2317.872)" opacity="0.1"/>
    <path id="Path_1383" data-name="Path 1383" d="M989.92,450.089c.169-.159,3.822-5.571,4.671-5.095Z" transform="translate(-4182.092 2235.955)" opacity="0.1"/>
    <path id="Path_1384" data-name="Path 1384" d="M968.284,235.566a6.3,6.3,0,0,1-.748,2.981h-.047c-.4-.084-.608-.55-.913-.844a1.244,1.244,0,0,0-1.433-.2,1.453,1.453,0,0,0-.7,1.362c-.2-.844-.138-1.754-.338-2.6s-.792-1.714-1.605-1.729c-.351,0-.76.13-1.013-.133-.154-.159-.184-.409-.3-.6-.583-.94-2.352-.464-3.074.019a18.917,18.917,0,0,1-2.46,1.666,6.317,6.317,0,1,1,12.633.091Z" transform="translate(-4153.607 2415.286)" opacity="0.1"/>
    <path id="Path_1385" data-name="Path 1385" d="M953.231,216.84c.115.192.145.442.3.6.253.262.662.127,1.013.133.814.013,1.408.876,1.605,1.727s.133,1.756.338,2.6a1.453,1.453,0,0,1,.7-1.361,1.241,1.241,0,0,1,1.432.2c.305.29.506.756.915.844s.787-.3.932-.723a11.407,11.407,0,0,0,.228-1.322,17.658,17.658,0,0,1,1.013-2.294,4.153,4.153,0,0,0-.027-2.964c-.2-.506-.495-.947-.7-1.445-.3-.756-.385-1.609-.756-2.33a2.74,2.74,0,0,0-3.305-1.351c-.577.218-1.079.638-1.664.826a5.5,5.5,0,0,1-2.434-.051,3.012,3.012,0,0,0-2.364.41c-.751.614-.957,1.769-1.663,2.444-.3.284-.665.464-.977.726a1.338,1.338,0,0,0-.547,1.077c.047.55.586,1.05.387,1.558a1.229,1.229,0,0,1-.3.388,5.571,5.571,0,0,0-1.285,2.186c1.421.444,2.958-1.123,4.07-1.857C950.881,216.376,952.65,215.9,953.231,216.84Z" transform="translate(-4145.653 2432.078)" fill="#4c3e42"/>
    <path id="Path_1386" data-name="Path 1386" d="M1052.045,481.457l-.66.545a19.383,19.383,0,0,0-2.974-2.909l.1-.1c.221-.056.348-.084.348-.084Z" transform="translate(-4230.708 2207.74)" opacity="0.1"/>
    <path id="Path_1387" data-name="Path 1387" d="M1053.464,476.316s-.238.591-.483,1.1-.506.974-.527.6c-.027-.745-3.1-3.24-3.1-3.24l.417-.405.484-.471Z" transform="translate(-4231.489 2211.904)" fill="#e7effd"/>
    <path id="Path_1388" data-name="Path 1388" d="M1053.7,449.621l.348,5.922c-.824-1.281-3.088-4.568-4.543-4.462l3.53-4.052a4.549,4.549,0,0,0,.405-.52C1053.568,448.195,1053.7,449.621,1053.7,449.621Z" transform="translate(-4231.614 2234.67)" opacity="0.1"/>
    <path id="Path_1389" data-name="Path 1389" d="M1055.55,476.316s-.238.591-.483,1.1c-.925-1.27-2.195-2.767-3.208-3.047l.484-.471Z" transform="translate(-4233.576 2211.904)" opacity="0.1"/>
    <path id="Path_1390" data-name="Path 1390" d="M1057.032,361l.955.743s1.592.027,1.751,1.351a2.771,2.771,0,0,0,1.619,1.938s1.089,1.087,1.089,1.592.822,1.406.822,1.486.8,1.7.691,1.99.844,1.567.557,2.044a11.748,11.748,0,0,0-.636,1.327,13.428,13.428,0,0,1-1.886,2.84,50.638,50.638,0,0,0-3.555,4.246s-3.131,3.609-3.131,4.727c0,0-3.052-5.1-4.857-4.963l3.53-4.06s.609-.663.636-1.062a5.2,5.2,0,0,1,2.5-2.309s.132-1.089-.213-1.114-.636-.876-.636-.876-2.336-2.76-2.364-4.512S1057.032,361,1057.032,361Z" transform="translate(-4232.403 2305.745)" fill="#65617d"/>
    <path id="Path_1391" data-name="Path 1391" d="M1088.812,376s-2.23,1.644-1.752,2.176S1088.812,376,1088.812,376Z" transform="translate(-4262.777 2293.277)" opacity="0.1"/>
    <path id="Path_1392" data-name="Path 1392" d="M1098.4,413.306s4.14-1.327,4.558,0Z" transform="translate(-4272.259 2262.758)" opacity="0.1"/>
    <path id="Path_1393" data-name="Path 1393" d="M922.124,374.08s0,6.05-.518,6.648S922.124,374.08,922.124,374.08Z" transform="translate(-4125.189 2294.873)" opacity="0.1"/>
    <path id="Path_1394" data-name="Path 1394" d="M1067.11,385.63l.77,2.163S1068.185,385.671,1067.11,385.63Z" transform="translate(-4246.251 2285.272)" opacity="0.1"/>
    <g id="Group_45" data-name="Group 45" transform="translate(-3199.566 2646.186)" opacity="0.1">
      <path id="Path_1241" data-name="Path 1241" d="M953.694,240.739c.194-.5-.314-.986-.381-1.519a1.014,1.014,0,0,0-.084.479c.034.4.338.778.41,1.151a.677.677,0,0,0,.056-.111Z" transform="translate(-952.026 -239.22)"/>
      <path id="Path_1242" data-name="Path 1242" d="M956.588,254.7c-.191-.844-.135-1.724-.327-2.559s-.792-1.715-1.605-1.729c-.351,0-.76.128-1.013-.133-.154-.159-.184-.409-.3-.6-.581-.94-2.35-.464-3.074.019-1.085.721-2.576,2.23-3.969,1.889-.066.16-.128.322-.181.49,1.421.444,2.958-1.123,4.07-1.857.724-.481,2.492-.959,3.074-.017.115.192.145.442.3.6.253.262.662.127,1.013.133.814.013,1.408.876,1.606,1.727s.133,1.756.338,2.6A1.441,1.441,0,0,1,956.588,254.7Z" transform="translate(-946.12 -247.46)"/>
      <path id="Path_1243" data-name="Path 1243" d="M1012.159,273.9c-.145.422-.523.809-.932.723s-.608-.55-.913-.844a1.246,1.246,0,0,0-1.433-.2,1.443,1.443,0,0,0-.7,1.285,1.385,1.385,0,0,1,.625-.768,1.241,1.241,0,0,1,1.432.2c.306.29.506.756.915.844s.787-.3.932-.723a3.722,3.722,0,0,0,.145-.763A2.384,2.384,0,0,1,1012.159,273.9Z" transform="translate(-997.7 -267.664)"/>
      <path id="Path_1244" data-name="Path 1244" d="M1033.791,251.878a15.5,15.5,0,0,0-1.013,2.293c-.037.169-.057.338-.078.506a17.505,17.505,0,0,1,1.013-2.286,4.007,4.007,0,0,0,.245-1.1A3.835,3.835,0,0,1,1033.791,251.878Z" transform="translate(-1018.084 -249.252)"/>
    </g>
    <circle id="Ellipse_83" data-name="Ellipse 83" cx="0.066" cy="0.066" r="0.066" transform="translate(-3222.279 2667.896)" fill="#e6e8ec"/>
    <path id="Path_1395" data-name="Path 1395" d="M130.407,343.668a6.418,6.418,0,0,1-1.231.368,12.373,12.373,0,0,1-2.233.211c.022.2.039.382.056.549.04.459.064.775.064.775l-.792-.054-6.53-.446-3.819-.566a7.127,7.127,0,0,0,.6.7,3.16,3.16,0,0,0,.763.593s3.446,2.791,4.041,2.816c.084,0,.111.084.1.218,1.45,0,5.959.211,4.708,2.721a2,2,0,0,1-1.025,1c-1.447.613-3.63-.49-4.754-1.167-.11.214-.214.414-.307.584-.191.36-.324.6-.324.6l-.113-.081-5.794-4.126-1.269-1.077a4.429,4.429,0,0,1-1.1-.191h0l-.169-.054a.326.326,0,0,0-.019.046,2.364,2.364,0,0,0-.1.405v.061a4.754,4.754,0,0,0-.047.474c0,.108-.008.223-.008.338a31.815,31.815,0,0,0,.912,5.995s2.389,6.093,1.541,7.5h0a.633.633,0,0,1-.169.182,1.677,1.677,0,0,0-.571,1.058,10.726,10.726,0,0,0,.238,3.77s-.051.084-.137.216a6.529,6.529,0,0,1-.628.844c-.035.04-.073.083-.111.122a2.936,2.936,0,0,1-.338.3c.022.066.046.133.069.206s.054.186.078.287a4.116,4.116,0,0,1-.211,2.483,6.841,6.841,0,0,0-.425,1.784h0a13.65,13.65,0,0,0,.086,3.359c-.025-.014-.047-.027-.073-.039q-2.8-1.464-5.522-3.057c-.532-.307-1.06-.621-1.585-.937q-.969-.584-1.93-1.182-1.266-.79-2.532-1.619l-.4-.263-.152-.1c-.214-.144-.425-.287-.638-.432a32.426,32.426,0,0,1-2.387-3.545c-.12-.214-.228-.419-.317-.606v-.01l-.057-.123-.238-.084h0c-.447-.157-.731-.267-.731-.267h0a8.282,8.282,0,0,0,.294-2.313,7,7,0,0,0-2.166-5.169A8.49,8.49,0,0,1,90.056,351v-.169a2.116,2.116,0,0,1,.01-.231l.2-.187c-.5-.1-.962-.145-.962-.145s1.7-6.145,4.558-8.2a13.419,13.419,0,0,0,3.432-4.149,62.893,62.893,0,0,1,5.112-7.494l.515-.65.15-.191.032-.039.041-.054q-.1-.159-.213-.314l-.047-.069a1.718,1.718,0,0,1-.387-1.079v-.1a1.3,1.3,0,0,1,.037-.2.2.2,0,0,0,.02.03c.241-.7,1.172-1.013,1.857-1.4,1.616-.908,2.3-2.9,2.65-4.744.268-1.438.491-3.051,1.605-3.974.719-.594,1.688-.79,2.416-1.379a4.529,4.529,0,0,0,1.026-1.318c.169-.287.314-.584.471-.871a8.787,8.787,0,0,1,2.915-3.287,4.844,4.844,0,0,1,4.209-.557c.528.2,1.013.506,1.519.731a5.914,5.914,0,0,0,.966.3,16.942,16.942,0,0,1,3.086.734c1.575.7,2.6,2.245,3.535,3.714a17.7,17.7,0,0,1,1.678,2.988v-.116a4.286,4.286,0,0,1,.338,1.553,2.364,2.364,0,0,1-.073.675,1.934,1.934,0,0,1-1.05,1.2l-.079.039a3.378,3.378,0,0,1-.327.147c-.017.093-.035.187-.056.279-.008.039-.019.079-.029.118-.022.095-.047.187-.074.28a6.5,6.5,0,0,1-2.026,3.1,6.809,6.809,0,0,1-2.266,1.283c-.059.02-.122.035-.181.054a1.455,1.455,0,0,1-.213.393,1.136,1.136,0,0,1-.23.221,1.4,1.4,0,0,1-.169.1.226.226,0,0,1-.046.022,2.209,2.209,0,0,1-2.026-.349c-.03-.02-.059-.044-.088-.066a1.938,1.938,0,0,1-.032.3c-.017.1-.029.169-.047.257s-.025.13-.037.192-.02.1-.03.154l-.02.086a13.262,13.262,0,0,1-1.881,4.575,6.526,6.526,0,0,1-.427.576l-.419.638v.086a7.266,7.266,0,0,1-1.085,4.016,11.712,11.712,0,0,1-.751,1.129l.095.056c.945.539,2.809,1.5,3.987,1.415,0,0,4.457.576,4.973.287.071-.041.14.015.2.135a10.31,10.31,0,0,1,3.687-1.492,1.438,1.438,0,0,1,1.8,1.35A2.132,2.132,0,0,1,130.407,343.668Z" transform="translate(-3433.511 2348.158)" fill="url(#linear-gradient-2)"/>
    <path id="Path_1396" data-name="Path 1396" d="M140.447,627.294a3.7,3.7,0,0,1,.243,3.246,8.246,8.246,0,0,0-.414,3.25c-.532-.307-1.06-.621-1.585-.937q-.969-.584-1.93-1.182-1.266-.79-2.532-1.619l-.4-.263-.152-.1a.317.317,0,0,0-.049-.068,30.646,30.646,0,0,1-2.328-3.565c-.142-.263-.265-.506-.363-.729v-.012a1.42,1.42,0,0,1-.2-.812,1.664,1.664,0,0,1,.819-1.013c.972-.506,2.532-.039,4.075.706a28.185,28.185,0,0,1,3.805,2.318l.137.1.014.01c.506.36.8.6.8.6A.816.816,0,0,1,140.447,627.294Z" transform="translate(-3467.948 2087.746)" fill="#fbbebe"/>
    <path id="Path_1397" data-name="Path 1397" d="M138.969,625.972a3.7,3.7,0,0,1,.243,3.25,8.251,8.251,0,0,0-.414,3.251q-.8-.464-1.585-.939-.971-.584-1.93-1.182c-.844-.528-1.688-1.069-2.524-1.621l-.4-.263-.152-.1a.368.368,0,0,0-.049-.068,30.348,30.348,0,0,1-2.328-3.565c-.142-.263-.265-.506-.363-.729v-.01a1.425,1.425,0,0,1-.2-.814,1.67,1.67,0,0,1,.819-1.013c.972-.506,2.532-.039,4.075.706a28.174,28.174,0,0,1,3.805,2.318l.137.1.014.01c.506.359.8.6.8.6S138.939,625.923,138.969,625.972Z" transform="translate(-3466.726 2088.843)" opacity="0.05"/>
    <path id="Path_1398" data-name="Path 1398" d="M167.126,633.817a4.123,4.123,0,0,1-.238.844,6.674,6.674,0,0,0-.383,1.519h0a13.423,13.423,0,0,0,.013,3.321q-2.8-1.464-5.522-3.057c-.532-.307-1.06-.621-1.585-.937a4.874,4.874,0,0,0-.478-1.882,33.619,33.619,0,0,1-2.563-3.911c-.115-.2-.214-.4-.307-.584v-.008c-.035-.074-.069-.145-.1-.216a1.928,1.928,0,0,1-.289-1.055,1.948,1.948,0,0,1,.7-1c1.5-1.094,4.61.387,7,1.857l.059.035c.452.282.881.56,1.266.82l.225.152c.989.675,1.646,1.2,1.646,1.2a3.594,3.594,0,0,1,.39.807,4.272,4.272,0,0,1,.14.49A4.08,4.08,0,0,1,167.126,633.817Z" transform="translate(-3488.667 2085.092)" fill="#fbbebe"/>
    <path id="Path_1399" data-name="Path 1399" d="M131.306,626.02a16.779,16.779,0,0,0,4.025,1.013,1.9,1.9,0,0,0,.306-.015h0a35.28,35.28,0,0,1,4.8.235c.787.069,1.545.142,2.171.206l1.573.169v-.608c-.437-.3-.945-.635-1.489-.972-2.4-1.482-5.551-3-7.06-1.894-2.125-1.026-4.283-1.519-4.9.307A3.286,3.286,0,0,0,131.306,626.02Z" transform="translate(-3467.939 2087.778)" opacity="0.1"/>
    <path id="Path_1400" data-name="Path 1400" d="M99.244,546.361a8.495,8.495,0,0,0,2.818,5.657c3.116,3.039,1.788,7.408,1.788,7.408a24.56,24.56,0,0,0,5.316,1.5,1.908,1.908,0,0,0,.306-.015,57.964,57.964,0,0,1,6.974.441l1.573.169V548.6l-17.209-4.18-1.558,1.553a3.039,3.039,0,0,0-.007.388Z" transform="translate(-3441.773 2153.289)" fill="#5c5c8e"/>
    <path id="Path_1401" data-name="Path 1401" d="M135.46,630.91" transform="translate(-3471.878 2081.4)" fill="none"/>
    <g id="Group_46" data-name="Group 46" transform="translate(-3342.533 2697.717)" opacity="0.1">
      <path id="Path_1324" data-name="Path 1324" d="M175.012,642.436l.282.029v.138l-1.573-.169c-1.575-.159-3.982-.385-5.571-.451A63.806,63.806,0,0,1,175.012,642.436Z" transform="translate(-156.517 -625.508)"/>
      <path id="Path_1325" data-name="Path 1325" d="M99.25,546.023l1.558-1.553,1.04.252-1.3,1.3a3.038,3.038,0,0,0,0,.388,8.5,8.5,0,0,0,2.818,5.657c3.116,3.039,1.788,7.406,1.788,7.406a29.363,29.363,0,0,0,4.833,1.455,4.179,4.179,0,0,0-.506.029,1.908,1.908,0,0,1-.306.015,24.628,24.628,0,0,1-5.316-1.5s1.329-4.367-1.788-7.406a8.476,8.476,0,0,1-2.829-5.652A3.042,3.042,0,0,1,99.25,546.023Z" transform="translate(-99.24 -544.47)"/>
    </g>
    <path id="Path_1402" data-name="Path 1402" d="M303,493.427s5.2-3.609,5.584-.361S303,495.858,303,495.858Z" transform="translate(-3611.135 2197.1)" fill="#fbbebe"/>
    <path id="Path_1403" data-name="Path 1403" d="M231.147,487.7s2.814,1.857,4.372,1.747c0,0,4.254.571,4.749.285s.8,4.122.8,4.122l-6.991-.495-4.484-.684s-2.242-1.367-2.242-2.546S231.147,487.7,231.147,487.7Z" transform="translate(-3548.256 2200.434)" fill="#f7cddd"/>
    <path id="Path_1404" data-name="Path 1404" d="M231.147,487.7s2.814,1.857,4.372,1.747c0,0,4.254.571,4.749.285s.8,4.122.8,4.122l-6.991-.495-4.484-.684s-2.242-1.367-2.242-2.546S231.147,487.7,231.147,487.7Z" transform="translate(-3548.256 2200.434)" fill="#4d05e8"/>
    <path id="Path_1405" data-name="Path 1405" d="M267.872,543.311s6.329-.262,4.911,2.686-6.212-.631-6.212-.631Z" transform="translate(-3580.855 2154.216)" fill="#fbbebe"/>
    <path id="Path_1406" data-name="Path 1406" d="M236.58,457.191s5.129-3.837,4.408-8.51-4.408,3.572-4.408,3.572Z" transform="translate(-3555.928 2234.057)" fill="#5c5c8e"/>
    <path id="Path_1407" data-name="Path 1407" d="M245,348.712a6.489,6.489,0,0,0,4.052,6.008,5.816,5.816,0,0,0,.834.277,6.577,6.577,0,0,0,.92.169c.223.022.447.034.675.034a6.389,6.389,0,0,0,2.129-.37,6.483,6.483,0,1,0-8.61-6.118Z" transform="translate(-3562.927 2321.351)" fill="#fbbebe"/>
    <path id="Path_1408" data-name="Path 1408" d="M99.244,546.361c.581.106,1.3.3,1.3.6,0,.506,8.1,3.243,8.1,3.243s-.3.707.506,1.924,7.4,8.206,7.4,8.206l-.022.206-.084.805-.4,3.851a13.306,13.306,0,0,1,3.343-.81,1.1,1.1,0,0,0,.809-.378,3.883,3.883,0,0,0-.528-1.295s-.657-.517-1.648-1.2V548.6l-17.209-4.18-1.558,1.553a3.039,3.039,0,0,0-.007.388Z" transform="translate(-3441.773 2153.289)" opacity="0.1"/>
    <path id="Path_1409" data-name="Path 1409" d="M94.94,421.583s2.026.2,2.026.709,8.1,3.243,8.1,3.243-.3.707.506,1.924,7.4,8.206,7.4,8.206l-.506,4.862a13.306,13.306,0,0,1,3.343-.81c.363.046.763-.29,1.094-.675a7.073,7.073,0,0,0,.731-1.042s-.913-3.852.3-4.764-1.317-7.6-1.317-7.6-1.146-4.754-.809-6.793a2.479,2.479,0,0,1,.1-.4.121.121,0,0,1,.015-.046c.723-1.948,8.495-18.291,8.495-18.291a11.634,11.634,0,0,0-.1-1.386c-.015-.128-.035-.262-.061-.4a6.791,6.791,0,0,0-.157-.721c-.044-.155-.091-.3-.147-.446-.24-.618-.608-1.092-1.158-1.1a3.366,3.366,0,0,0-2.026-.854,8.882,8.882,0,0,0-4.558.854c-4.761,2.026-5.875,2.127-5.875,2.127l-2.394,3.135-.493.645a62,62,0,0,0-4.88,7.409,13.236,13.236,0,0,1-3.277,4.1C96.562,415.506,94.94,421.583,94.94,421.583Z" transform="translate(-3438.199 2277.353)" fill="#794ade"/>
    <path id="Path_1410" data-name="Path 1410" d="M153.914,482.3s-6.763,1.671-9.384,5.888Z" transform="translate(-3479.417 2204.922)" opacity="0.1"/>
    <path id="Path_1411" data-name="Path 1411" d="M182.887,526.18s-1.278,8.586-.923,9.233S182.887,526.18,182.887,526.18Z" transform="translate(-3510.48 2168.449)" opacity="0.1"/>
    <path id="Path_1412" data-name="Path 1412" d="M189.653,541.651c.493.645,2.49,5.623,2.49,5.623l-.577,8.358-.506,4.862a13.3,13.3,0,0,1,3.344-.81c.361.046.763-.289,1.094-.675-.527-2.848-1.651-8.805-1.857-8.92a27.881,27.881,0,0,1-1.708-6.27c-.073-1.33-1.977-4.328-1.977-4.328S189.158,541.006,189.653,541.651Z" transform="translate(-3516.788 2157.386)" opacity="0.1"/>
    <path id="Path_1413" data-name="Path 1413" d="M201.62,424.674c.123.38.319,2.583.319,2.583a2.971,2.971,0,0,0,2.519,2.78,2.478,2.478,0,0,1,.1-.4c.608-1.72,8.51-18.337,8.51-18.337a10.91,10.91,0,0,0-.316-2.5,10.08,10.08,0,0,0-4.445.273c-.787-.1-3.354,5-3.354,5s-1.712,3.911-1.9,4.443a9.589,9.589,0,0,0-.076,1.712c-.076.3-.876.567-.989.988s-.039,1.251-.115,1.4A6.11,6.11,0,0,0,201.62,424.674Z" transform="translate(-3526.843 2266.158)" opacity="0.1"/>
    <path id="Path_1414" data-name="Path 1414" d="M205.226,422.882c.125.38.319,2.583.319,2.583a2.868,2.868,0,0,0,2.026,2.639,4.273,4.273,0,0,0,1.215.243l1.222,1.06,5.64,4.161s2.1-3.883,1.533-3.908-3.861-2.785-3.861-2.785c-1.013-.537-2.016-2.333-2.483-3.255a2.621,2.621,0,0,0,.061-.338c.2-1.72,4.458-8.306,4.458-8.306a12.459,12.459,0,0,0,2.286-5.524c.019-.081.03-.169.046-.252a2.754,2.754,0,0,0,.034-.338c.076-1.379-.927-1.881-2.119-2h0a8.584,8.584,0,0,0-1.857.057,13.374,13.374,0,0,0-1.823.358c-.506-.066-1.766,2.053-2.59,3.554h0c-.444.814-.763,1.45-.763,1.45s-1.72,3.913-1.913,4.445a9.13,9.13,0,0,0-.076,1.712c-.076.306-.876.567-.988.988s-.041,1.251-.116,1.4A6.2,6.2,0,0,0,205.226,422.882Z" transform="translate(-3529.841 2267.646)" fill="#794ade"/>
    <path id="Path_1415" data-name="Path 1415" d="M166.61,360.434a3.876,3.876,0,0,0,4.21.545,28.053,28.053,0,0,0,3.873-2.363c.844-.506,1.729-.934,2.556-1.462h0c.122-.079.24-.159.355-.24.956-.675,1.781-1.541,2.769-2.161a4.308,4.308,0,0,1,2.225-.712,2.521,2.521,0,0,1,1.062.223,1.38,1.38,0,0,1,.169.088,4.612,4.612,0,0,1,.895.675c.279.252.547.52.844.753.019-.081.03-.169.046-.252a2.752,2.752,0,0,0,.034-.338c.223.022.447.034.675.034a6.39,6.39,0,0,0,2.132-.378.474.474,0,0,1,.015-.083,5.088,5.088,0,0,1,1.708-3.346,12.333,12.333,0,0,1,2.372-.9,6.483,6.483,0,1,0-12.216.7,8.882,8.882,0,0,0-4.558.854c-4.761,2.026-5.875,2.127-5.875,2.127l-2.38,3.14a2.689,2.689,0,0,1,.577,1.246C168.151,359.438,167.327,360.027,166.61,360.434Z" transform="translate(-3497.77 2321.335)" opacity="0.1"/>
    <path id="Path_1416" data-name="Path 1416" d="M190.193,328.761a5.114,5.114,0,0,0-1.708,3.344,2.63,2.63,0,0,1-.392,1.135c-.545.707-1.643.506-2.355,0a13.946,13.946,0,0,0-2.068-1.636,3.566,3.566,0,0,0-3.285.491c-.988.62-1.815,1.486-2.77,2.159-.923.652-1.953,1.116-2.915,1.7a27.359,27.359,0,0,1-3.871,2.363,3.875,3.875,0,0,1-4.209-.544c.717-.4,1.541-.988,1.486-1.84s-1.05-1.492-.982-2.363,1.1-1.219,1.833-1.648c1.545-.9,2.195-2.87,2.532-4.693.257-1.423.468-3.015,1.533-3.928.685-.589,1.616-.782,2.306-1.364a7.133,7.133,0,0,0,1.432-2.164,8.6,8.6,0,0,1,2.782-3.253,4.491,4.491,0,0,1,4.021-.549c.506.2.959.506,1.455.721,1.232.534,2.645.463,3.868,1.023,1.5.692,2.482,2.222,3.376,3.673.765,1.241,2.26,3.437,1.842,5.041C193.676,328.067,191.309,327.979,190.193,328.761Z" transform="translate(-3497.778 2343.386)" fill="#7c5c5c"/>
    <g id="Group_47" data-name="Group 47" transform="translate(-3331.165 2667.605)" opacity="0.1">
      <path id="Path_1341" data-name="Path 1341" d="M169.584,419.9a1.047,1.047,0,0,1,.035-.2,3.032,3.032,0,0,1,.643,1.351,1.166,1.166,0,0,1-.029.346A2.643,2.643,0,0,1,169.584,419.9Z" transform="translate(-169.075 -410.651)"/>
      <path id="Path_1342" data-name="Path 1342" d="M170.492,378.881a28,28,0,0,0,3.871-2.363c.962-.586,1.992-1.05,2.915-1.7.956-.675,1.783-1.541,2.77-2.159a3.571,3.571,0,0,1,3.285-.491A13.667,13.667,0,0,1,185.4,373.8c.717.515,1.81.716,2.355.008a2.6,2.6,0,0,0,.392-1.133,5.092,5.092,0,0,1,1.708-3.346c1.118-.78,3.483-.692,3.911-2.338a2.533,2.533,0,0,0,.056-.893,3.591,3.591,0,0,1,.25,2.109c-.43,1.646-2.8,1.558-3.913,2.338a5.122,5.122,0,0,0-1.708,3.346,2.613,2.613,0,0,1-.39,1.133c-.547.707-1.644.506-2.363-.008a13.749,13.749,0,0,0-2.068-1.636,3.571,3.571,0,0,0-3.285.491c-.988.618-1.815,1.486-2.77,2.159-.923.653-1.953,1.116-2.915,1.7a27.2,27.2,0,0,1-3.871,2.363,3.875,3.875,0,0,1-4.209-.545,5.25,5.25,0,0,0,.783-.52A4.5,4.5,0,0,0,170.492,378.881Z" transform="translate(-166.58 -366.1)"/>
    </g>
    <g id="Group_63" data-name="Group 63">
      <g id="Group_62" data-name="Group 62" transform="translate(200 -1)">
        <path id="hexagon" d="M25.045,17.622,56.841,0l31.8,17.622V52.866l-31.8,17.622-31.8-17.622Z" transform="translate(-3403.363 2723.488) rotate(180)" fill="#4d05e8"/>
      </g>
      <g transform="matrix(1, 0, 0, 1, -3355, 2618)" filter="url(#Path_1417)">
        <path id="Path_1417-2" data-name="Path 1417" d="M37.016,3.422,34.08.469A1.559,1.559,0,0,0,31.865.454L13.426,18.737l-7.8-7.858a1.555,1.555,0,0,0-2.2-.016L.462,13.8a1.576,1.576,0,0,0-.015,2.215l11.84,11.934a1.576,1.576,0,0,0,2.215.016L37,5.636a1.559,1.559,0,0,0,.016-2.214Z" transform="translate(75.83 54.89)" fill="#3acc6c"/>
      </g>
    </g>
  </g>
</svg>
