<svg xmlns="http://www.w3.org/2000/svg" width="141.524" height="141.524" viewBox="0 0 141.524 141.524">
  <g id="sad-face" transform="translate(-198.499 -3065.286)">
    <circle id="Ellipse_81" data-name="Ellipse 81" cx="70.762" cy="70.762" r="70.762" transform="translate(198.499 3065.286)" fill="#ff2c3a"/>
    <path id="Path_1069" data-name="Path 1069" d="M481.368,551.956c0,11.171-17.561.954-36.388.954s-37.87,9.794-37.87-1.376c0-6.37,6.069-15.228,14.776-21.662h0c6.56-4.849,14.616-8.322,22.708-8.322,8.322,0,16.474,3.759,22.976,8.92C475.778,536.978,481.368,545.721,481.368,551.956Z" transform="translate(-174.978 2619.652)" fill="#444053"/>
    <path id="Path_1070" data-name="Path 1070" d="M517.212,530.45c-10.008-1.507-28.107-3.344-45.682-.6,6.56-4.849,14.616-8.322,22.708-8.322C502.557,521.53,510.709,525.289,517.212,530.45Z" transform="translate(-224.622 2619.667)" fill="#f6f8fb"/>
    <path id="Path_1071" data-name="Path 1071" d="M403.707,443.783c1.346-.076,7.684-.553,11.71-2.849a4.563,4.563,0,0,1,2.126-.626c1.28-.037,2.753.5,1.81,3.489-1.528,4.893-10.4,10.4-15.9,10.092a18.241,18.241,0,0,1-15.721-9.927,4.588,4.588,0,0,1-.567-2.36c.048-1.514.6-3.411,3.441-1.3,3.84,2.856,11.125,3.4,12.586,3.477A4.847,4.847,0,0,0,403.707,443.783Z" transform="translate(-159.604 2682.986)" fill="#444053"/>
    <path id="Path_1072" data-name="Path 1072" d="M625.707,443.783c1.346-.076,7.684-.553,11.709-2.849a4.564,4.564,0,0,1,2.126-.626c1.28-.037,2.753.5,1.81,3.489-1.528,4.893-10.4,10.4-15.9,10.092a18.242,18.242,0,0,1-15.721-9.927,4.589,4.589,0,0,1-.567-2.36c.048-1.514.6-3.411,3.441-1.3,3.84,2.856,11.125,3.4,12.586,3.477A4.848,4.848,0,0,0,625.707,443.783Z" transform="translate(-330.683 2682.986)" fill="#444053"/>
  </g>
</svg>
