<svg xmlns="http://www.w3.org/2000/svg" width="139" height="27" viewBox="0 0 139 27">
  <g id="social" transform="translate(-614 -629)">
    <g id="facebook" transform="translate(613.965 628.798)">
      <ellipse id="Ellipse_55" data-name="Ellipse 55" cx="13" cy="13.5" rx="13" ry="13.5" transform="translate(0.035 0.202)" fill="#4d05e8"/>
      <path id="Path_35" data-name="Path 35" d="M85.714,16.862V9.18h2.623l.375-3h-3V4.309c0-.843.281-1.5,1.5-1.5h1.592V.094C88.431.094,87.494,0,86.464,0a3.616,3.616,0,0,0-3.841,3.934V6.183H80v3h2.623v7.681Z" transform="translate(-71.356 5.772)" fill="#fff" fill-rule="evenodd"/>
    </g>
    <g id="twitter" transform="translate(669.806 628.798)">
      <circle id="Ellipse_55-2" data-name="Ellipse 55" cx="13.5" cy="13.5" r="13.5" transform="translate(0.194 0.202)" fill="#4d05e8"/>
      <path id="Path_39" data-name="Path 39" d="M41.962,12.147a7.233,7.233,0,0,0,7.3-7.3V4.5A5.649,5.649,0,0,0,50.51,3.182a5.769,5.769,0,0,1-1.46.417,2.7,2.7,0,0,0,1.112-1.39,6.375,6.375,0,0,1-1.6.626A2.482,2.482,0,0,0,46.688,2a2.611,2.611,0,0,0-2.572,2.572,1.355,1.355,0,0,0,.069.556A7.186,7.186,0,0,1,38.9,2.417a2.662,2.662,0,0,0-.348,1.321,2.761,2.761,0,0,0,1.112,2.155,2.343,2.343,0,0,1-1.182-.348h0a2.54,2.54,0,0,0,2.085,2.5,2.143,2.143,0,0,1-.7.069,1.183,1.183,0,0,1-.486-.069,2.633,2.633,0,0,0,2.433,1.807,5.247,5.247,0,0,1-3.2,1.112A1.924,1.924,0,0,1,38,10.9a6.56,6.56,0,0,0,3.962,1.251" transform="translate(-30.689 6.453)" fill="#fff" fill-rule="evenodd"/>
    </g>
    <g id="google" transform="translate(726.548 628.798)">
      <g id="Group_11" data-name="Group 11" transform="translate(0 0)">
        <ellipse id="Ellipse_55-3" data-name="Ellipse 55" cx="13" cy="13.5" rx="13" ry="13.5" transform="translate(0.451 0.202)" fill="#4d05e8"/>
      </g>
      <g id="google-icon" transform="translate(7.757 8.453)">
        <path id="Path_990" data-name="Path 990" d="M135.42,107.8a4.346,4.346,0,0,0-.107-1.037H130.55v1.882h2.8a2.479,2.479,0,0,1-1.037,1.646l-.009.063,1.506,1.167.1.01a4.96,4.96,0,0,0,1.511-3.731" transform="translate(-125.477 -102.613)" fill="#fff"/>
        <path id="Path_991" data-name="Path 991" d="M18.457,160.439a4.835,4.835,0,0,0,3.359-1.229l-1.6-1.24a3,3,0,0,1-1.758.507,3.054,3.054,0,0,1-2.886-2.108l-.059.005-1.566,1.212-.02.057a5.069,5.069,0,0,0,4.532,2.8" transform="translate(-13.384 -150.294)" fill="#fff"/>
        <path id="Path_992" data-name="Path 992" d="M2.187,74.617a3.123,3.123,0,0,1-.169-1,3.282,3.282,0,0,1,.163-1l0-.067L.593,71.312l-.052.025a5.062,5.062,0,0,0,0,4.554l1.646-1.274" transform="translate(0 -68.541)" fill="#fff"/>
        <path id="Path_993" data-name="Path 993" d="M18.457,1.961a2.811,2.811,0,0,1,1.961.755l1.432-1.4A4.874,4.874,0,0,0,18.457,0a5.069,5.069,0,0,0-4.532,2.8l1.64,1.274a3.066,3.066,0,0,1,2.891-2.108" transform="translate(-13.384)" fill="#fff"/>
      </g>
    </g>
  </g>
</svg>
