<svg xmlns="http://www.w3.org/2000/svg" width="626.798" height="345.5" viewBox="0 0 626.798 345.5">
  <g id="thank-you" transform="translate(0 -35.999)">
    <path id="Path_1580" data-name="Path 1580" d="M805.662,434.8s-25.214-5.107-22.023,5.745,24.257,3.83,24.257,3.83Z" transform="translate(-368.79 -251.901)" fill="#ffb8b8"/>
    <path id="Path_1581" data-name="Path 1581" d="M876.162,331.395a2.366,2.366,0,0,1,3.923,1.352l.862,5.005s3.9,20.021.56,32.739-5.7,29.47-14.718,31.255c-7.714,1.527-37.044-.891-45.348-1.621a2.364,2.364,0,0,1-2.156-2.408l.155-7.305a2.367,2.367,0,0,1,2.115-2.3l33.581-3.581a2.362,2.362,0,0,0,2.093-2.022c.8-5.713,3.382-23.425,5.947-32.738C865.251,342.243,872.06,335.138,876.162,331.395Z" transform="translate(-384.893 -205.811)" fill="#575a89"/>
    <rect id="Rectangle_14" data-name="Rectangle 14" width="231.739" height="1.104" transform="translate(395.06 368.714)" fill="#3f3d56"/>
    <path id="Path_1582" data-name="Path 1582" d="M850.822,614.608v15.32l8.617,1.915,5.745-2.872-.638-12.128Z" transform="translate(-381.373 -275.493)" fill="#ffb8b8"/>
    <path id="Path_1583" data-name="Path 1583" d="M943.086,614.608v15.32l8.618,1.915,5.745-2.872-.638-12.128Z" transform="translate(-422.73 -275.493)" fill="#ffb8b8"/>
    <path id="Path_1584" data-name="Path 1584" d="M899.02,493.3s-11.49,23.3-11.171,41.492a249.542,249.542,0,0,1-1.6,32.874l-5.745,54.578,18.512.957,8.617-58.727,16.6-45.322,6.383,53.94,1.6,54.259h15.958s7.341-51.386,3.192-62.876c0,0,9.575-64.473,1.915-67.664S899.02,493.3,899.02,493.3Z" transform="translate(-412.336 -278.658)" fill="#2f2e41"/>
    <path id="Path_1585" data-name="Path 1585" d="M865.694,733.068s-3.192-11.809-7.66-5.745S840.8,743.6,840.8,743.6s-19.15,10.213-1.6,12.767,19.469-3.192,19.469-3.192,2.872-1.6,5.426-.638,13.724.638,14.363-3.192-3.511-24.9-4.788-21.065S865.694,733.068,865.694,733.068Z" transform="translate(-390.5 -382.782)" fill="#2f2e41"/>
    <path id="Path_1586" data-name="Path 1586" d="M987.267,735.438s0-3.511-6.064-3.83-7.022,3.83-7.022,3.83-1.6,1.6-1.915,6.383,0,17.235,0,17.235-2.872,9.575,10.213,7.66,8.3-11.809,8.3-11.809Z" transform="translate(-453.346 -385.471)" fill="#2f2e41"/>
    <path id="Path_1587" data-name="Path 1587" d="M953.813,277.532l-1.6,17.874-2.873,6.7L957,312.96l18.831-17.554s-3.511-9.575-1.277-15Z" transform="translate(-443.191 -181.944)" fill="#ffb8b8"/>
    <path id="Path_1588" data-name="Path 1588" d="M979.21,319.84l-.147,1.573-5.6,59.707s-.22,2.777-.629,6.479c-.689,6.262-1.915,15.17-3.52,17.778a7.924,7.924,0,0,0-.638,7.66c-14.682,8.618-58.089-3.83-58.089-3.83l9.894-39.577s-8.935-41.173-7.977-45,21.065-17.554,21.065-17.554l.594,1.6c8.57,11.49,17.28,1.6,19.833-.638l5.107-4.468Z" transform="translate(-425.817 -193.612)" fill="#575a89"/>
    <path id="Path_1589" data-name="Path 1589" d="M630.022,466.807c-30.429,4.128-59.459,5.639-86.32,3.1a208.258,208.258,0,0,1-28.314-4.862c-17.08-4.043-38.045-4.043-61.079-1.89a175.313,175.313,0,0,0-41.114,8.72c-17.851,6.179-37.406,5.644-58.138.471a106.037,106.037,0,0,1-24.411-9.72c-15.157-8.145-33.1-5.2-52.646,4.184V393.975c18.252-7.949,36.034-9.232,53.25-2.531a112.493,112.493,0,0,0,19.389,5.784,152.831,152.831,0,0,0,72.033-3.253c31.654-10.725,64.765-7.391,98.3,0,37.358,7.891,73.769,8.356,109.053,0Z" transform="translate(-142.267 -231.067)" fill="#3f3d56"/>
    <rect id="Rectangle_15" data-name="Rectangle 15" width="231.739" height="1.104" transform="translate(0 368.714)" fill="#3f3d56"/>
    <rect id="thank-square" width="20.122" height="20.122" transform="translate(215.875 140.411)" fill="#4d05e8"/>
    <path id="Path_1590" data-name="Path 1590" d="M161.413,402.578l10.537,48.782-32,71.806,18.732,8.2,35.9-82.343L171.633,376.7l-13.659,3.512Z" transform="translate(-62.731 -168.854)" fill="#2f2e41"/>
    <path id="Path_1591" data-name="Path 1591" d="M193.875,489.311a42.622,42.622,0,0,0,12.488,12.878c8.586,5.854,26.537,44.489,26.537,44.489l-19.512,78.051,26.927,7.415,14.83-91.71-30.44-68.684Z" transform="translate(-104.559 -269)" fill="#2f2e41"/>
    <path id="Path_1592" data-name="Path 1592" d="M173.991,741.488s-3.9,4.293-2.342,7.415,2.342,11.317,2.342,11.317H177.5v-9.366l11.317,10.537s26.147,2.341,25.757,0-15.61-7.805-15.61-7.805l-7.415-11.317Z" transform="translate(-94.432 -389.908)" fill="#2f2e41"/>
    <path id="Path_1593" data-name="Path 1593" d="M236.232,743.349s-3.9,4.293-2.342,7.415,2.342,11.317,2.342,11.317h3.512v-9.366l11.317,10.537s26.147,2.341,25.757,0-15.61-7.805-15.61-7.805l-7.415-11.317Z" transform="translate(-122.331 -390.742)" fill="#2f2e41"/>
    <circle id="Ellipse_93" data-name="Ellipse 93" cx="14.83" cy="14.83" r="14.83" transform="translate(89.706 83.723)" fill="#a0616a"/>
    <path id="Path_1594" data-name="Path 1594" d="M186.535,284.319s-1.171,14.83-8.586,20.293-7.415,10.147-7.415,10.147l30.049,13.659-7.024-14.829s-1.951-.781,1.171-4.683,5.854-13.269,5.854-13.269Z" transform="translate(-94.097 -184.986)" fill="#a0616a"/>
    <path id="Path_1595" data-name="Path 1595" d="M210.155,408.225h0a84.053,84.053,0,0,1-27.709,16.084l-7.083,2.459s-14.977-18.177-7.414-32.5a22.437,22.437,0,0,1,6.5-7.7l-.156-.683-3.8-16.566-.34-1.483L158.837,365.1s-.035.012-.1.027c-.847.222-6.587,1.276-2.24-12.125,2.892-8.917,4.989-17.408,6.17-22.6a5.508,5.508,0,0,1,6.812-4.1c3.624.994,8.126,2.881,10.824,6.409,5.073,6.634,6.1-.293,6.1-.293s14.2,15.9,13.415,22.928a27.918,27.918,0,0,0,.172,5.651V361c.094.835.207,1.705.336,2.6.968,6.572,2.841,14.209,3.528,16.894.051.191.094.359.129.5.082.324.129.5.129.5Z" transform="translate(-87.082 -203.718)" fill="#575a89"/>
    <path id="Path_1596" data-name="Path 1596" d="M192.633,416.071l-3.122,10.537s-11.973-3.052-18.986-4.785a22.437,22.437,0,0,1,6.5-7.7l-.156-.683-3.8-16.566-.34-1.483-11.317-2.732s-.035.012-.1.027l-.679-5.1s19.513,1.171,20.683,5.854-1.171,9.366-2.342,10.147,0,0,2.342,1.171-.781,0-2.342,2.342.39.39.78,1.561,0-.39-.39,1.561,1.561.39,1.951.39S192.633,416.071,192.633,416.071Z" transform="translate(-89.658 -231.273)" opacity="0.2"/>
    <path id="Path_1597" data-name="Path 1597" d="M211.314,432.48l25.366,6.634s13.659-14.049,21.074-9.756-13.269,14.049-13.269,14.049l-7.415,1.561-26.927-3.122Z" transform="translate(-111.851 -249.633)" fill="#a0616a"/>
    <path id="Path_1598" data-name="Path 1598" d="M160.633,384.754l1.561,11.708s-1.171,0,0,2.732,0,8.2,0,8.2-2.342.39-.39,1.561,3.9,4.293,3.122,5.464-2.342,2.732,1.171,3.512,23.415,5.854,23.415,5.854l3.122-10.537s-10.927-5.463-11.317-5.463-2.342,1.561-1.951-.39.781-.39.39-1.561-2.342.781-.781-1.561,4.683-1.171,2.342-2.342-3.512-.39-2.342-1.171,3.512-5.464,2.342-10.147S160.633,384.754,160.633,384.754Z" transform="translate(-89.659 -230.005)" fill="#575a89"/>
    <path id="Path_1599" data-name="Path 1599" d="M197.079,319.445l1.176-1.87a3.9,3.9,0,0,0-1.226-5.383l-8.96-5.635a3.9,3.9,0,0,0-5.383,1.226l-1.176,1.87a3.9,3.9,0,0,0-3.318,1.822l-2.894,4.6a3.9,3.9,0,0,0,1.226,5.383l12.074,7.594a3.9,3.9,0,0,0,5.383-1.226l2.894-4.6a3.9,3.9,0,0,0,.2-3.78Z" transform="translate(-95.964 -194.685)" fill="#575a89"/>
    <path id="Path_1600" data-name="Path 1600" d="M196.172,264.737c.83-1.212.466-2.9,1.06-4.238.932-2.109,3.682-2.542,5.984-2.681a17.635,17.635,0,0,1,4.583.123,4.4,4.4,0,0,1,3.123,2.382c.323.69.289-1.448.138-4.194a13.255,13.255,0,0,0-9.875-12.1l-.1-.025a25.133,25.133,0,0,0-8.512-.992,11.1,11.1,0,0,0-7.563,3.637c-.838,1.01-1.442,2.21-2.373,3.135-1.635,1.625-4.014,2.174-6.2,2.893a18.5,18.5,0,0,0-6.816,3.715A10.029,10.029,0,0,0,166.2,263.2c-.12,3.039,1.738,6.224,4.84,6.9a3.5,3.5,0,0,1,1.479.681c2.92,2.379-.533,4.712-.573,7.31-.033,2.168,2.346,3.639,4.508,3.792a8.726,8.726,0,0,0,8.855-6.692,18.19,18.19,0,0,0-.007-5.4c-.193-2.062,4.351-6.795,1.341-3.318a5.089,5.089,0,0,0-1.175,2.327c-.555,2.823,2,3.838,3.589,5.448a6.742,6.742,0,0,1,1.463,6.977,7.772,7.772,0,0,0,1.65-9.778c-.5-.816-1.163-1.532-1.64-2.364-.744-1.3-.891-4.089,1.278-3.96C193.359,265.212,194.937,266.54,196.172,264.737Z" transform="translate(-92.153 -166.439)" fill="#2f2e41"/>
    <circle id="Ellipse_94" data-name="Ellipse 94" cx="16.278" cy="16.278" r="16.278" transform="translate(505.196 71.651)" fill="#ffb8b8"/>
    <path id="Path_1601" data-name="Path 1601" d="M990.867,336.958l-5.6,59.707s-.22,2.777-.629,6.479c-11.883,2.841-44.693,5.011-44.693,5.011l-1.6-11.49,36.385-9.894s-4.468-24.9.638-35.109a78.92,78.92,0,0,0,3.351-7.636,11.079,11.079,0,0,1,12.142-7.068Z" transform="translate(-438.263 -208.517)" opacity="0.2"/>
    <path id="Path_1602" data-name="Path 1602" d="M926.6,441.418s-25.214-5.107-22.023,5.745,24.257,3.83,24.257,3.83Z" transform="translate(-422.999 -254.866)" fill="#ffb8b8"/>
    <path id="Path_1603" data-name="Path 1603" d="M982.275,330.172l9.894,1.6s7.022,19.15,5.745,32.236-.958,30-9.575,33.194-47.237,5.745-47.237,5.745l-1.6-11.49,36.385-9.894s-4.468-24.9.638-35.109S982.275,330.172,982.275,330.172Z" transform="translate(-438.782 -205.539)" fill="#575a89"/>
    <path id="Path_1604" data-name="Path 1604" d="M948.359,224.656l-3.129-1.253s6.542-7.2,15.643-6.576l-2.56-2.818s6.257-2.5,11.946,4.071c2.99,3.457,6.45,7.52,8.607,12.1h3.35l-1.4,3.079,4.894,3.079-5.024-.553a17.207,17.207,0,0,1,.136,5.107,6.609,6.609,0,0,1-2.42,4.323h0s-3.88-8.031-3.88-9.284v3.131s-3.129-2.818-3.129-4.7l-1.706,2.192H958.314l1.707-2.818-6.542.939,2.56-3.444L945.91,245.455S940.111,229.353,948.359,224.656Z" transform="translate(-440.764 -153.261)" fill="#2f2e41"/>
    <circle id="Ellipse_95" data-name="Ellipse 95" cx="59.59" cy="59.59" r="59.59" transform="translate(252.154 140.838)" fill="#4d05e8"/>
    <path id="Path_1605" data-name="Path 1605" d="M604.279,487.905c0,3.657-13.426,12.828-28.967,12.828S548,491.562,548,487.905s11.771,1.241,27.312,1.241S604.279,484.248,604.279,487.905Z" transform="translate(-263.292 -275.634)" fill="#fff"/>
    <circle id="Ellipse_96" data-name="Ellipse 96" cx="6.621" cy="6.621" r="6.621" transform="translate(326.641 176.702)" fill="#3f3d56"/>
    <circle id="Ellipse_97" data-name="Ellipse 97" cx="6.621" cy="6.621" r="6.621" transform="translate(283.604 176.702)" fill="#3f3d56"/>
    <circle id="Ellipse_98" data-name="Ellipse 98" cx="3.311" cy="3.311" r="3.311" transform="translate(290.777 176.702)" fill="#fff"/>
    <circle id="Ellipse_99" data-name="Ellipse 99" cx="3.311" cy="3.311" r="3.311" transform="translate(324.434 176.702)" fill="#fff"/>
    <circle id="Ellipse_100" data-name="Ellipse 100" cx="23.726" cy="23.726" r="23.726" transform="translate(289.122 97.249)" fill="#4d05e8"/>
    <path id="Path_1606" data-name="Path 1606" d="M567.592,326.516c8.379,4.988,8.68,19.936,8.68,19.936s-13.284,6.861-21.663,1.873-8.68-19.936-8.68-19.936S559.213,321.528,567.592,326.516Z" transform="translate(-262.364 -203.085)" fill="#3f3d56"/>
    <path id="Path_1607" data-name="Path 1607" d="M621.118,344.083c-7.572,6.144-21.707,1.27-21.707,1.27s-1.857-14.835,5.715-20.979,21.707-1.27,21.707-1.27S628.691,337.939,621.118,344.083Z" transform="translate(-286.247 -201.549)" fill="#3f3d56"/>
    <path id="thank-triangle" d="M16.5,0,33,26H0Z" transform="translate(388.356 96.979)" fill="#e3e2e2"/>
    <path id="thank-flower" d="M12.455,20.405a7.311,7.311,0,0,1-5.221,2.167A7.137,7.137,0,0,1,0,15.535,7.137,7.137,0,0,1,7.234,8.5h.122l-.019-.09A6.854,6.854,0,0,1,7.2,7.037,7.137,7.137,0,0,1,14.433,0a7.137,7.137,0,0,1,7.234,7.037,6.853,6.853,0,0,1-.787,3.195A7.016,7.016,0,0,1,18.766,24,7.267,7.267,0,0,1,12.455,20.405Z" transform="translate(264 35.999)" fill="#ff6584"/>
  </g>
</svg>
